<svg id="visual" viewBox="0 0 900 200" width="900" height="200" xmlns="http://www.w3.org/2000/svg" xmlns:xlink="http://www.w3.org/1999/xlink" version="1.1"><rect x="0" y="0" width="900" height="200" fill="#ffffff"></rect><path d="M0 80L15 77.8C30 75.7 60 71.3 90 72.3C120 73.3 150 79.7 180 75.7C210 71.7 240 57.3 270 53.5C300 49.7 330 56.3 360 62.5C390 68.7 420 74.3 450 72.3C480 70.3 510 60.7 540 60.2C570 59.7 600 68.3 630 74C660 79.7 690 82.3 720 76.7C750 71 780 57 810 54.8C840 52.7 870 62.3 885 67.2L900 72L900 201L885 201C870 201 840 201 810 201C780 201 750 201 720 201C690 201 660 201 630 201C600 201 570 201 540 201C510 201 480 201 450 201C420 201 390 201 360 201C330 201 300 201 270 201C240 201 210 201 180 201C150 201 120 201 90 201C60 201 30 201 15 201L0 201Z" fill="#cccccc"></path><path d="M0 107L15 102.8C30 98.7 60 90.3 90 86.5C120 82.7 150 83.3 180 84.5C210 85.7 240 87.3 270 85.3C300 83.3 330 77.7 360 76.2C390 74.7 420 77.3 450 83.7C480 90 510 100 540 104.5C570 109 600 108 630 107C660 106 690 105 720 100.2C750 95.3 780 86.7 810 86.8C840 87 870 96 885 100.5L900 105L900 201L885 201C870 201 840 201 810 201C780 201 750 201 720 201C690 201 660 201 630 201C600 201 570 201 540 201C510 201 480 201 450 201C420 201 390 201 360 201C330 201 300 201 270 201C240 201 210 201 180 201C150 201 120 201 90 201C60 201 30 201 15 201L0 201Z" fill="#d7d7d7"></path><path d="M0 129L15 126.3C30 123.7 60 118.3 90 114.3C120 110.3 150 107.7 180 107C210 106.3 240 107.7 270 107.5C300 107.3 330 105.7 360 105.3C390 105 420 106 450 105.3C480 104.7 510 102.3 540 106C570 109.7 600 119.3 630 120C660 120.7 690 112.3 720 108C750 103.7 780 103.3 810 104C840 104.7 870 106.3 885 107.2L900 108L900 201L885 201C870 201 840 201 810 201C780 201 750 201 720 201C690 201 660 201 630 201C600 201 570 201 540 201C510 201 480 201 450 201C420 201 390 201 360 201C330 201 300 201 270 201C240 201 210 201 180 201C150 201 120 201 90 201C60 201 30 201 15 201L0 201Z" fill="#e2e2e3"></path><path d="M0 140L15 138.3C30 136.7 60 133.3 90 135.5C120 137.7 150 145.3 180 149C210 152.7 240 152.3 270 149.5C300 146.7 330 141.3 360 138C390 134.7 420 133.3 450 132.7C480 132 510 132 540 131.5C570 131 600 130 630 129.5C660 129 690 129 720 132.2C750 135.3 780 141.7 810 144.3C840 147 870 146 885 145.5L900 145L900 201L885 201C870 201 840 201 810 201C780 201 750 201 720 201C690 201 660 201 630 201C600 201 570 201 540 201C510 201 480 201 450 201C420 201 390 201 360 201C330 201 300 201 270 201C240 201 210 201 180 201C150 201 120 201 90 201C60 201 30 201 15 201L0 201Z" fill="#ededee"></path><path d="M0 170L15 171.7C30 173.3 60 176.7 90 177C120 177.3 150 174.7 180 173.3C210 172 240 172 270 170.3C300 168.7 330 165.3 360 163.8C390 162.3 420 162.7 450 164.3C480 166 510 169 540 168C570 167 600 162 630 161.2C660 160.3 690 163.7 720 163.2C750 162.7 780 158.3 810 157.5C840 156.7 870 159.3 885 160.7L900 162L900 201L885 201C870 201 840 201 810 201C780 201 750 201 720 201C690 201 660 201 630 201C600 201 570 201 540 201C510 201 480 201 450 201C420 201 390 201 360 201C330 201 300 201 270 201C240 201 210 201 180 201C150 201 120 201 90 201C60 201 30 201 15 201L0 201Z" fill="#f8f9fa"></path></svg>