<svg id="visual" viewBox="0 0 900 150" width="900" height="150" xmlns="http://www.w3.org/2000/svg" xmlns:xlink="http://www.w3.org/1999/xlink" version="1.1"><rect x="0" y="0" width="900" height="150" fill="#212529"></rect><path d="M0 34L15 39C30 44 60 54 90 55.7C120 57.3 150 50.7 180 45.5C210 40.3 240 36.7 270 40.2C300 43.7 330 54.3 360 57.7C390 61 420 57 450 53C480 49 510 45 540 42.7C570 40.3 600 39.7 630 41.8C660 44 690 49 720 47.8C750 46.7 780 39.3 810 38.8C840 38.3 870 44.7 885 47.8L900 51L900 151L885 151C870 151 840 151 810 151C780 151 750 151 720 151C690 151 660 151 630 151C600 151 570 151 540 151C510 151 480 151 450 151C420 151 390 151 360 151C330 151 300 151 270 151C240 151 210 151 180 151C150 151 120 151 90 151C60 151 30 151 15 151L0 151Z" fill="#77767c"></path><path d="M0 62L15 63.8C30 65.7 60 69.3 90 72.3C120 75.3 150 77.7 180 77C210 76.3 240 72.7 270 68.2C300 63.7 330 58.3 360 60.8C390 63.3 420 73.7 450 74.8C480 76 510 68 540 67.2C570 66.3 600 72.7 630 74.5C660 76.3 690 73.7 720 70C750 66.3 780 61.7 810 62.2C840 62.7 870 68.3 885 71.2L900 74L900 151L885 151C870 151 840 151 810 151C780 151 750 151 720 151C690 151 660 151 630 151C600 151 570 151 540 151C510 151 480 151 450 151C420 151 390 151 360 151C330 151 300 151 270 151C240 151 210 151 180 151C150 151 120 151 90 151C60 151 30 151 15 151L0 151Z" fill="#97969b"></path><path d="M0 102L15 99.8C30 97.7 60 93.3 90 92.2C120 91 150 93 180 94.8C210 96.7 240 98.3 270 96.3C300 94.3 330 88.7 360 85.5C390 82.3 420 81.7 450 82.3C480 83 510 85 540 87.3C570 89.7 600 92.3 630 93.3C660 94.3 690 93.7 720 91.5C750 89.3 780 85.7 810 82.8C840 80 870 78 885 77L900 76L900 151L885 151C870 151 840 151 810 151C780 151 750 151 720 151C690 151 660 151 630 151C600 151 570 151 540 151C510 151 480 151 450 151C420 151 390 151 360 151C330 151 300 151 270 151C240 151 210 151 180 151C150 151 120 151 90 151C60 151 30 151 15 151L0 151Z" fill="#b9b8bb"></path><path d="M0 112L15 111.2C30 110.3 60 108.7 90 109.3C120 110 150 113 180 115C210 117 240 118 270 115.2C300 112.3 330 105.7 360 104.3C390 103 420 107 450 107.5C480 108 510 105 540 106C570 107 600 112 630 112.5C660 113 690 109 720 106C750 103 780 101 810 99.7C840 98.3 870 97.7 885 97.3L900 97L900 151L885 151C870 151 840 151 810 151C780 151 750 151 720 151C690 151 660 151 630 151C600 151 570 151 540 151C510 151 480 151 450 151C420 151 390 151 360 151C330 151 300 151 270 151C240 151 210 151 180 151C150 151 120 151 90 151C60 151 30 151 15 151L0 151Z" fill="#dbdbdd"></path><path d="M0 127L15 128C30 129 60 131 90 132.7C120 134.3 150 135.7 180 134.2C210 132.7 240 128.3 270 126.7C300 125 330 126 360 125.2C390 124.3 420 121.7 450 120.3C480 119 510 119 540 119.2C570 119.3 600 119.7 630 119.8C660 120 690 120 720 121.2C750 122.3 780 124.7 810 126C840 127.3 870 127.7 885 127.8L900 128L900 151L885 151C870 151 840 151 810 151C780 151 750 151 720 151C690 151 660 151 630 151C600 151 570 151 540 151C510 151 480 151 450 151C420 151 390 151 360 151C330 151 300 151 270 151C240 151 210 151 180 151C150 151 120 151 90 151C60 151 30 151 15 151L0 151Z" fill="#ffffff"></path></svg>